<svg xmlns="http://www.w3.org/2000/svg" viewBox="0 0 136.18 157.25"><defs><style>.cls-1{fill:#424242;}.cls-2{fill:#d50000;}.cls-3{fill:#ffc400;}</style></defs><title>Recurso 10</title><g id="Capa_2" data-name="Capa 2"><g id="Capa_17" data-name="Capa 17"><polygon class="cls-1" points="56.08 57.81 80.11 57.81 68.09 78.63 44.06 78.63 56.08 57.81"/><polygon class="cls-1" points="56.08 99.44 80.11 99.44 68.09 78.63 44.06 78.63 56.08 99.44"/><polygon class="cls-1" points="80.11 67.06 86.78 78.63 80.11 90.19 73.43 78.63 80.11 67.06"/><polygon class="cls-2" points="48.07 34.69 58.26 34.69 68.09 17.66 100.62 74 105.72 65.17 68.09 0 48.07 34.69"/><polygon class="cls-3" points="96.13 39.31 136.18 39.31 98.56 104.48 88.36 104.48 120.89 48.14 101.23 48.14 96.13 39.31"/><polygon class="cls-2" points="116.16 83.25 136.18 117.94 60.93 117.94 55.83 109.11 120.89 109.11 111.06 92.08 116.16 83.25"/><polygon class="cls-3" points="88.12 122.56 68.09 157.25 30.47 92.08 35.56 83.25 68.09 139.59 77.92 122.56 88.12 122.56"/><polygon class="cls-2" points="37.63 52.77 47.82 52.77 15.29 109.11 34.95 109.11 40.05 117.94 0 117.94 37.63 52.77"/><polygon class="cls-3" points="20.03 74 0 39.31 75.25 39.31 80.35 48.14 15.29 48.14 25.12 65.17 20.03 74"/></g></g></svg>